<svg xmlns="http://www.w3.org/2000/svg" xmlns:xlink="http://www.w3.org/1999/xlink" viewBox="0 0 151.15 119.55"><defs><style>.cls-1{fill:url(#linear-gradient);}.cls-2{fill:url(#linear-gradient-2);}.cls-3{fill:url(#linear-gradient-3);}.cls-4{fill:url(#linear-gradient-4);}.cls-5{fill:url(#linear-gradient-5);}.cls-6{fill:url(#linear-gradient-6);}.cls-7{fill:#a6e600;}.cls-8{fill:#76be00;}.cls-9{fill:#55a200;}.cls-10{fill:url(#linear-gradient-7);}.cls-11{fill:url(#linear-gradient-8);}.cls-12{fill:url(#linear-gradient-9);}.cls-13{fill:#ee2225;}.cls-14{fill:url(#linear-gradient-10);}.cls-15{fill:url(#linear-gradient-11);}.cls-16{fill:url(#linear-gradient-12);}.cls-17{fill:#fd0002;}.cls-18{fill:url(#linear-gradient-13);}.cls-19{fill:url(#linear-gradient-14);}</style><linearGradient id="linear-gradient" x1="63.71" y1="107.75" x2="87.44" y2="107.75" gradientUnits="userSpaceOnUse"><stop offset="0" stop-color="#a6e600"/><stop offset="0.09" stop-color="#8fd300"/><stop offset="0.3" stop-color="#5ca800"/><stop offset="0.46" stop-color="#3c8d00"/><stop offset="0.55" stop-color="#308300"/></linearGradient><linearGradient id="linear-gradient-2" x1="67.18" y1="107.1" x2="85.23" y2="107.1" gradientUnits="userSpaceOnUse"><stop offset="0" stop-color="#fff" stop-opacity="0.4"/><stop offset="1" stop-color="#fff" stop-opacity="0"/></linearGradient><linearGradient id="linear-gradient-3" x1="117.41" y1="107.75" x2="141.13" y2="107.75" xlink:href="#linear-gradient"/><linearGradient id="linear-gradient-4" x1="120.78" y1="107.12" x2="138.91" y2="107.12" xlink:href="#linear-gradient-2"/><linearGradient id="linear-gradient-5" x1="0" y1="62.79" x2="151.15" y2="62.79" xlink:href="#linear-gradient"/><linearGradient id="linear-gradient-6" x1="2.26" y1="61.97" x2="148.88" y2="61.97" xlink:href="#linear-gradient-2"/><linearGradient id="linear-gradient-7" x1="99.59" y1="79.65" x2="76.2" y2="41.14" gradientUnits="userSpaceOnUse"><stop offset="0" stop-color="#f57e20"/><stop offset="1" stop-color="#fcb412"/></linearGradient><linearGradient id="linear-gradient-8" x1="78.8" y1="75.41" x2="78.8" y2="33.22" gradientUnits="userSpaceOnUse"><stop offset="0" stop-color="#f57e20" stop-opacity="0"/><stop offset="1" stop-color="#f9da20"/></linearGradient><linearGradient id="linear-gradient-9" x1="75.58" y1="22.68" x2="75.58" y2="34.02" gradientUnits="userSpaceOnUse"><stop offset="0" stop-color="#a6e600"/><stop offset="0.16" stop-color="#8fd300"/><stop offset="0.54" stop-color="#5ca800"/><stop offset="0.84" stop-color="#3c8d00"/><stop offset="1" stop-color="#308300"/></linearGradient><linearGradient id="linear-gradient-10" x1="105.99" y1="0" x2="105.99" y2="25.38" xlink:href="#linear-gradient-9"/><linearGradient id="linear-gradient-11" x1="102.9" y1="9.24" x2="102.9" y2="25.38" gradientUnits="userSpaceOnUse"><stop offset="0" stop-color="#a6e600"/><stop offset="0.23" stop-color="#86cb00" stop-opacity="0.72"/><stop offset="0.5" stop-color="#61ac00" stop-opacity="0.42"/><stop offset="0.73" stop-color="#479600" stop-opacity="0.19"/><stop offset="0.9" stop-color="#368800" stop-opacity="0.05"/><stop offset="1" stop-color="#308300" stop-opacity="0"/></linearGradient><linearGradient id="linear-gradient-12" x1="104.34" y1="63.35" x2="105.99" y2="6.69" xlink:href="#linear-gradient-9"/><linearGradient id="linear-gradient-13" x1="136.71" y1="37.96" x2="127.97" y2="53.09" xlink:href="#linear-gradient-9"/><linearGradient id="linear-gradient-14" x1="104.25" y1="58.37" x2="139.32" y2="58.37" xlink:href="#linear-gradient-2"/></defs><g id="Layer_2" data-name="Layer 2"><g id="Layer_1-2" data-name="Layer 1"><path class="cls-1" d="M75.57,96a11.88,11.88,0,0,0-11.8,10.65s0,.06,0,.09c0,.33,0,.66,0,1A11.87,11.87,0,1,0,75.57,96Z"/><path class="cls-2" d="M75.57,98.22a9.64,9.64,0,0,0-8.39,4.87,9.66,9.66,0,0,1,14.46,8.27A9.42,9.42,0,0,1,80.37,116a9.48,9.48,0,0,0-4.8-17.75Z"/><path class="cls-3" d="M129.19,95.94a11.81,11.81,0,1,0,10.05,18.36,11.82,11.82,0,0,0,1.89-6.41A12,12,0,0,0,129.19,95.94Z"/><path class="cls-4" d="M129.19,98.16a9.74,9.74,0,0,0-8.34,4.75s0,.1-.07.14a9.68,9.68,0,0,1,13.33,13,9.16,9.16,0,0,0,4.8-8.19A9.73,9.73,0,0,0,129.19,98.16Z"/><path class="cls-5" d="M141.52,82.41H73L54.15,30.27a9.63,9.63,0,0,0-9-6.35H9.62a9.62,9.62,0,0,0,0,19.24H38.34L57.18,95.31A9.54,9.54,0,0,0,60.87,100a16.69,16.69,0,0,1,30.19,1.67H113.7a16.68,16.68,0,0,1,30.77-.46,9.63,9.63,0,0,0-2.95-18.79Z"/><path class="cls-6" d="M141.52,84.68H71.4L52,31a7.37,7.37,0,0,0-6.92-4.86H9.62a7.33,7.33,0,0,0-6.88,9.94,7.33,7.33,0,0,1,4.62-1.64H42.83a7.4,7.4,0,0,1,6.93,4.86L69,92.55A16.6,16.6,0,0,1,83.06,93H121.7a16.54,16.54,0,0,1,15,0h2.59a7.36,7.36,0,0,1,6.88,4.78,7.35,7.35,0,0,0-4.62-13.08Z"/><path class="cls-7" d="M11.2,51.85H28.79a1.4,1.4,0,0,0,0-2.79H11.2a1.4,1.4,0,1,0,0,2.79Z"/><path class="cls-8" d="M19.57,59.17h12a1.4,1.4,0,0,0,0-2.79h-12a1.4,1.4,0,0,0,0,2.79Z"/><path class="cls-9" d="M28,66.5h6.42a1.4,1.4,0,1,0,0-2.79H28a1.4,1.4,0,1,0,0,2.79Z"/><path class="cls-10" d="M94.78,63.51a.41.41,0,0,1-.16-.78l4.7-2.18A72.57,72.57,0,0,0,96.15,49.8l-6.26.36a.43.43,0,0,1-.23-.81l5.09-2.68a28.84,28.84,0,0,0-4.7-6.78l-4.49.17a.33.33,0,0,1-.15-.63l2.81-1.31c-5.23-4.54-11.45-6-16.38-4.19,0,0-5.6,2.15-5,10.71l3.6.08a.44.44,0,0,1,.21.82l-3.39,2a39.7,39.7,0,0,0,3.26,9.11l6.2-.38a.45.45,0,0,1,.25.84l-4.73,2.69a38.29,38.29,0,0,0,5.34,6.94l5.61-.63a.39.39,0,0,1,.27.7l-3.31,2.34a38.85,38.85,0,0,0,21.34,9,98.6,98.6,0,0,0-1.57-14.58Z"/><path class="cls-11" d="M83.48,66.85l-3.31,2.34a38.29,38.29,0,0,0,10.17,6.22c.62-7.52,1-19.94-2-27.36-3.6-8.8-8.64-12.93-13-14.83a12.8,12.8,0,0,0-3.51.71s-5.6,2.15-5,10.71l3.6.08a.44.44,0,0,1,.21.82l-3.39,2a39.7,39.7,0,0,0,3.26,9.11l6.2-.38a.45.45,0,0,1,.25.84l-4.73,2.69a38.29,38.29,0,0,0,5.34,6.94l5.61-.63A.39.39,0,0,1,83.48,66.85Z"/><path class="cls-12" d="M68.33,32.7A3.72,3.72,0,0,1,69.5,34a7.56,7.56,0,0,1,1.91-1.19,15,15,0,0,1,8.66-.34c.06-.11.11-.22.18-.34,1.56-3,6.43-1.85,6.43-1.85S82,24.77,77.62,28c-.17-2.44,2.32-5.36,2.32-5.36-5.89.55-6.87,5.38-6.87,5.38a7.26,7.26,0,0,0-4.63-4.22,9.25,9.25,0,0,1,1.23,5.3c-3.91-.36-5.2,3.4-5.2,3.4A3.49,3.49,0,0,1,68.33,32.7Z"/><path class="cls-13" d="M122.35,5.55a9.67,9.67,0,0,0-3,.47c-.71,1.13-1.14,2.9-.49,5.64a.29.29,0,0,1-.48.27,7.74,7.74,0,0,1-1.75-4.69A11.61,11.61,0,0,0,96,5.57a7.55,7.55,0,0,1,1.7,4.3.3.3,0,0,1-.57.17,14.29,14.29,0,0,0-2-2.84h0A9.92,9.92,0,0,0,80.54,19.46a5.4,5.4,0,0,1,1.77-1.81.26.26,0,0,1,.38.3,9.44,9.44,0,0,0-.27,4.33,9.92,9.92,0,0,0,15.82-1.91,11.6,11.6,0,0,0,15.42-.13,9.92,9.92,0,1,0,8.69-14.69Z"/><path class="cls-14" d="M122.35,5.55a9.67,9.67,0,0,0-3,.47c-.71,1.13-1.14,2.9-.49,5.64a.29.29,0,0,1-.48.27,7.74,7.74,0,0,1-1.75-4.69A11.61,11.61,0,0,0,96,5.57a7.55,7.55,0,0,1,1.7,4.3.3.3,0,0,1-.57.17,14.29,14.29,0,0,0-2-2.84h0A9.92,9.92,0,0,0,80.54,19.46a5.4,5.4,0,0,1,1.77-1.81.26.26,0,0,1,.38.3,9.44,9.44,0,0,0-.27,4.33,9.92,9.92,0,0,0,15.82-1.91,11.6,11.6,0,0,0,15.42-.13,9.92,9.92,0,1,0,8.69-14.69Z"/><path class="cls-15" d="M120.63,18.68s-7.73-9-14.76-9.42-4.1,5.72-10.36,6.1S90,11.5,85.46,11.65c-2.73.09-4.63,2.66-5.71,4.7a9.75,9.75,0,0,0,.79,3.11,5.4,5.4,0,0,1,1.77-1.81.26.26,0,0,1,.38.3,9.44,9.44,0,0,0-.27,4.33,9.92,9.92,0,0,0,15.82-1.91,11.6,11.6,0,0,0,15.42-.13,9.92,9.92,0,0,0,8.69,5.14,9.77,9.77,0,0,0,3.71-.72C123.39,21.64,120.63,18.68,120.63,18.68Z"/><path class="cls-16" d="M106,49.82a21.37,21.37,0,0,1,5.7-6.14c2.73-10.19,6.46-15,9-17.24a11.05,11.05,0,0,1-6.12-3c-1.89,2.77-4.65,8-6.3,16.59a142.49,142.49,0,0,1,3-16.8,12.75,12.75,0,0,1-11.57-.37,68.74,68.74,0,0,1,2.1,18.41,67.32,67.32,0,0,0-5.59-16.87,11.08,11.08,0,0,1-6.13,2.17c5.57,8.31,6.85,22,6.85,22l.31.81a73.93,73.93,0,0,1,3.22,10.92l.62,3.1,2.16.14A20.55,20.55,0,0,1,106,49.82Z"/><path class="cls-17" d="M137.35,52c-3.18,1.79-7.38,2.4-9.54,1.31-.6-.3-2.41-1.2-1.27-8.48a26.51,26.51,0,0,0-12.9-.78.67.67,0,0,1-.2,0,18.32,18.32,0,1,0,26.92,20.22C140.58,60,139,53.69,137.35,52Z"/><path class="cls-18" d="M138.91,42.27a7.93,7.93,0,0,1,2.3-1.87.36.36,0,0,0,.08-.58A8.51,8.51,0,0,0,139,38.1a.36.36,0,0,0-.35,0,12.58,12.58,0,0,0-3,2.45c-4.82-2.25-10.79-4.39-22.36,2.27a27.65,27.65,0,0,1,13.94.94.84.84,0,0,1,.53.92c-.3,1.83-1,6.75.54,7.51,1.86.92,6.07.25,9-1.69,2.75,1.24,4.54,9.83,4.2,14.21C146.9,58.51,143.9,46.29,138.91,42.27Z"/><path class="cls-19" d="M139.32,56.32a11.34,11.34,0,0,0-2-4.32c-3.18,1.79-7.38,2.4-9.54,1.31-.6-.3-2.41-1.2-1.27-8.48a26.51,26.51,0,0,0-12.9-.78.67.67,0,0,1-.2,0,18.29,18.29,0,0,0-5.2,27.27,23,23,0,0,0,31.08-15Z"/></g></g></svg>